<?xml version="1.0" encoding="UTF-8"?>
<svg width="49px" height="49px" viewBox="0 0 49 49" version="1.1" xmlns="http://www.w3.org/2000/svg" xmlns:xlink="http://www.w3.org/1999/xlink">
    <title>website_icon</title>
    <g id="Identity-Explorations" stroke="none" stroke-width="1" fill="none" fill-rule="evenodd">
        <g id="Artboard" transform="translate(-2507.000000, -1323.000000)" fill="#000000">
            <path d="M2541,1323 L2541,1327 C2541,1334.33333 2544.66667,1338 2552,1338 L2551.991,1338 L2556,1338 L2556,1357 L2552,1357 C2544.66667,1357 2541,1360.66667 2541,1368 L2541,1372 L2522,1372 L2522.00036,1367.99602 L2521.99723,1367.65357 C2521.88267,1360.55119 2518.21693,1357 2511,1357 L2507,1357 L2507,1338 L2511.013,1338 L2511,1338 C2518.33333,1338 2522,1334.33333 2522,1327 L2522,1323 L2541,1323 Z" id="website_icon"></path>
        </g>
    </g>
</svg>