<?xml version="1.0" encoding="UTF-8"?>
<svg width="531px" height="79px" viewBox="0 0 531 79" version="1.1" xmlns="http://www.w3.org/2000/svg" xmlns:xlink="http://www.w3.org/1999/xlink">
    <title>ff_logo</title>
    <defs>
        <linearGradient x1="-1.11022302e-14%" y1="50%" x2="100%" y2="50%" id="linearGradient-1">
            <stop stop-color="#381460" offset="0%"></stop>
            <stop stop-color="#B21F66" offset="26.2273015%"></stop>
            <stop stop-color="#FE346E" offset="60.5363176%"></stop>
            <stop stop-color="#FFBD69" offset="100%"></stop>
        </linearGradient>
    </defs>
    <g id="Identity-Explorations" stroke="none" stroke-width="1" fill="none" fill-rule="evenodd">
        <g id="Artboard" transform="translate(-409.000000, -1262.000000)">
            <g id="ff_logo" transform="translate(409.461000, 1262.532000)">
                <path d="M21.079,77.468 L21.079,52.216 L35.631,52.216 L35.631,35.524 L21.079,35.524 L21.079,23.433 L37.45,23.433 L37.45,5.992 L-2.84217094e-13,5.992 L-2.84217094e-13,77.468 L21.079,77.468 Z M60.99,77.468 L60.99,51.574 C60.99,46.117 63.023,43.549 68.052,43.549 C69.871,43.549 71.583,43.977 73.081,44.619 L73.616,22.256 C65.912,20.758 60.776,24.503 59.278,31.779 L57.459,22.684 L40.018,22.684 L40.018,77.468 L60.99,77.468 Z M86.563,21.186 C92.769,21.186 98.012,17.227 98.012,10.593 C98.012,4.066 92.769,0 86.563,0 C80.357,0 75.114,4.066 75.114,10.593 C75.114,17.227 80.357,21.186 86.563,21.186 Z M97.049,77.468 L97.049,22.684 L76.077,22.684 L76.077,77.468 L97.049,77.468 Z M120.054,78.324 C124.655,78.324 129.256,77.254 132.894,74.9 L131.289,59.599 C129.684,60.562 128.4,60.99 127.116,60.99 C124.976,60.99 124.227,59.599 124.227,57.138 L124.227,38.199 L132.038,38.199 L132.038,22.684 L124.227,22.684 L124.227,9.844 L103.255,12.519 L103.255,22.684 L99.51,22.684 L99.51,38.199 L103.255,38.199 L103.255,60.776 C103.255,72.118 109.247,78.324 120.054,78.324 Z M172.805,77.468 L172.805,61.953 L157.825,61.953 L172.484,37.129 L172.484,22.684 L134.927,22.684 L134.927,38.199 L149.265,38.199 L134.927,62.916 L134.927,77.468 L172.805,77.468 Z M265.079,77.468 L265.079,52.216 L279.631,52.216 L279.631,35.524 L265.079,35.524 L265.079,23.433 L281.45,23.433 L281.45,5.992 L244,5.992 L244,77.468 L265.079,77.468 Z M304.99,77.468 L304.99,51.574 C304.99,46.117 307.023,43.549 312.052,43.549 C313.871,43.549 315.583,43.977 317.081,44.619 L317.616,22.256 C309.912,20.758 304.776,24.503 303.278,31.779 L301.459,22.684 L284.018,22.684 L284.018,77.468 L304.99,77.468 Z M330.563,21.186 C336.769,21.186 342.012,17.227 342.012,10.593 C342.012,4.066 336.769,0 330.563,0 C324.357,0 319.114,4.066 319.114,10.593 C319.114,17.227 324.357,21.186 330.563,21.186 Z M341.049,77.468 L341.049,22.684 L320.077,22.684 L320.077,77.468 L341.049,77.468 Z M366.301,78.324 C377.001,78.324 384.277,71.476 386.31,60.455 L368.655,57.031 C368.548,60.348 367.906,63.558 366.194,63.558 C364.482,63.558 363.519,61.418 363.519,54.891 L385.989,54.891 C386.524,51.253 386.738,48.257 386.738,46.438 C386.738,31.351 379.462,21.828 366.836,21.828 C352.284,21.828 343.831,32.742 343.831,50.29 C343.831,69.336 353.14,78.324 366.301,78.324 Z M368.12,44.619 L363.733,44.619 C363.733,39.269 364.482,36.487 366.301,36.487 C367.799,36.487 368.334,38.948 368.334,42.693 C368.334,43.335 368.334,43.87 368.12,44.619 Z M410.492,77.468 L410.492,42.265 C410.492,40.125 411.348,39.055 412.632,39.055 C414.344,39.055 414.772,40.446 414.772,42.693 L414.772,77.468 L435.851,77.468 L435.851,37.022 C435.851,27.392 430.608,21.828 422.369,21.828 C416.163,21.828 411.348,25.145 409.208,31.03 L407.389,22.684 L389.52,22.684 L389.52,77.468 L410.492,77.468 Z M454.469,78.324 C461.317,78.324 464.527,74.686 466.346,69.443 L467.951,77.468 L485.927,77.468 L485.927,1.926 L464.955,1.926 L464.955,29.318 C463.778,24.61 459.819,21.828 454.362,21.828 C444.304,21.828 438.419,31.993 438.419,50.076 C438.419,68.908 445.053,78.324 454.469,78.324 Z M462.815,61.739 C460.996,61.739 459.712,58.636 459.712,49.755 C459.712,40.446 460.675,37.664 462.922,37.664 C464.206,37.664 464.955,38.734 464.955,40.446 L464.955,58.85 C464.955,60.562 464.099,61.739 462.815,61.739 Z M508.611,78.324 C521.023,78.324 529.583,71.262 529.583,60.027 C529.583,42.265 507.327,42.479 507.327,37.878 C507.327,36.808 508.076,35.952 509.467,35.952 C511.393,35.952 512.356,37.771 512.463,40.339 L529.048,38.52 C528.513,29.211 521.665,21.828 509.467,21.828 C497.59,21.828 488.923,29.532 488.923,40.553 C488.923,58.422 510.751,57.566 510.751,62.167 C510.751,63.344 509.895,64.093 508.397,64.093 C506.578,64.093 504.866,62.702 504.759,59.492 L488.174,62.06 C489.137,72.118 496.734,78.324 508.611,78.324 Z" fill="url(#linearGradient-1)" fill-rule="nonzero"></path>
                <path d="M217.539,24.468 L217.539,39.468 L232.539,39.468 L232.539,58.468 L217.539,58.468 L217.539,73.468 L198.539,73.468 L198.539,58.468 L183.539,58.468 L183.539,39.468 L198.539,39.468 L198.539,24.468 L217.539,24.468 Z M198.539,28.468 C198.539,28.468 198.539,32.1346667 198.539,39.468 L187.539,39.468 C194.872333,39.468 198.539,35.8013333 198.539,28.468 Z M217.539,28.468 C217.539,28.468 217.539,32.1346667 217.539,39.468 L228.539,39.468 C221.205667,39.468 217.539,35.8013333 217.539,28.468 Z M217.539,69.468 C217.539,69.468 217.539,65.8013333 217.539,58.468 L228.539,58.468 C221.205667,58.468 217.539,62.1346667 217.539,69.468 Z M198.539,69.468 C198.539,69.468 198.539,65.8013333 198.539,58.468 L187.539,58.468 C194.872333,58.468 198.539,62.1346667 198.539,69.468 Z" id="Combined-Shape-Copy-14" fill="#FFFFFF"></path>
            </g>
        </g>
    </g>
</svg>